# xmcd
#
# Track frame offsets:
#	150
#	12753
#	30568
#	46097
#	71336
#	94217
#	117036
#	134618
#	149688
#	165773
#
# Disc length: 2661 seconds
#
# Revision: 1
# Processed by: cddbd v1.5.2PL0 Copyright (c) Steve Scherf et al.
# Submitted via: audiograbber 1.83.01
#
DISCID=7b0a630a
DTITLE=Just Plain Trouble - Headed South
DYEAR=2007
DGENRE=
TTITLE0=I'll be fine by closin time
TTITLE1=Desperate Measures
TTITLE2=Walking by myself
TTITLE3=Headed South
TTITLE4=I aint living long like this
TTITLE5=Is it raining at your house
TTITLE6=One eyed Gypsy
TTITLE7=Georgia on a fast train (live)
TTITLE8=Reconsider Baby (Live)
TTITLE9=Catfish Blues (Live)
EXTD=Track Info by Scott Green
EXTT0=
EXTT1=
EXTT2=
EXTT3=
EXTT4=
EXTT5=
EXTT6=
EXTT7=
EXTT8=
EXTT9=
PLAYORDER=
